<svg width="57" height="50" viewBox="0 0 57 50" fill="none" xmlns="http://www.w3.org/2000/svg">
<path d="M56.2613 46.0014C56.2613 48.0803 54.5861 49.7813 52.5387 49.7813H4.1445C2.09706 49.7813 0.421875 48.0803 0.421875 46.0014C0.421875 43.9224 2.09706 42.2215 4.1445 42.2215H52.5387C54.5861 42.2215 56.2613 43.9224 56.2613 46.0014ZM54.9584 10.2813C54.2138 10.0923 53.2832 10.2813 52.9109 11.0373L43.6044 24.6449C43.2321 25.0229 42.4876 25.2119 41.9292 25.2119C41.1846 25.2119 40.6263 24.8339 40.4401 24.078L30.0168 1.77655C29.6445 1.02057 29.0861 0.642578 28.3416 0.642578C27.5971 0.642578 26.8525 1.20956 26.6664 1.77655L17.7321 24.078C17.546 24.6449 16.9876 25.2119 16.243 25.2119C15.6846 25.4009 14.9401 25.0229 14.5679 24.4559L3.77224 10.8483C3.21385 10.0923 2.46932 9.90333 1.72479 10.2813C0.980269 10.4703 0.421875 11.2263 0.421875 11.9823V28.9918C0.421875 34.2837 4.51677 38.4416 9.72844 38.4416H46.9547C52.1664 38.4416 56.2613 34.2837 56.2613 28.9918V11.9823C56.2613 11.2263 55.7029 10.4703 54.9584 10.2813Z" fill="#FFA800"/>
</svg>
