<svg width="39" height="34" viewBox="0 0 39 34" fill="none" xmlns="http://www.w3.org/2000/svg">
<path d="M34.2764 21.3293L34.2659 21.3402L34.2558 21.3514C32.7678 22.9979 29.4766 25.5888 26.4231 27.8713C24.9127 29.0004 23.4868 30.0349 22.4103 30.8152L22.3263 30.8761C21.8263 31.2386 21.4029 31.5455 21.0894 31.7762C20.9243 31.8978 20.7846 32.0019 20.678 32.0838L20.6768 32.0848C20.6388 32.114 20.5879 32.1531 20.5356 32.196C20.1609 32.3874 20.0175 32.4372 19.9268 32.4372C19.8363 32.4372 19.6932 32.3876 19.32 32.1971C19.2699 32.1554 19.2207 32.1169 19.1828 32.0872C19.0768 32.0041 18.9375 31.8981 18.7724 31.774C18.4413 31.5251 17.9883 31.1896 17.451 30.7922L17.305 30.6842C16.2466 29.9014 14.8794 28.8902 13.4348 27.7981C10.383 25.4912 7.07694 22.8912 5.57725 21.3293C2.31503 17.9317 1.94141 14.1671 1.94141 11.6258C1.94141 6.03623 6.41296 1.61816 11.5106 1.61816C14.6712 1.61816 17.5077 3.26209 19.2979 5.87219L20.1225 7.07464L20.9472 5.87219C22.7504 3.24304 25.5945 1.61816 28.343 1.61816C33.6246 1.61816 37.9122 6.02403 37.9122 11.6258C37.9122 14.1671 37.5386 17.9317 34.2764 21.3293Z" stroke="#F431A7" stroke-width="2"/>
</svg>
