<svg width="50" height="50" viewBox="0 0 50 50" fill="none" xmlns="http://www.w3.org/2000/svg">
<path d="M48.874 46.3576L40.4286 38.1006L40.2306 37.7995C39.8626 37.4331 39.3593 37.2267 38.8341 37.2267C38.3088 37.2267 37.8055 37.4331 37.4375 37.7995C30.2601 44.3842 19.2006 44.7421 11.5936 38.6359C3.9866 32.5297 2.19257 21.8542 7.40131 13.6893C12.61 5.52444 23.2053 2.40382 32.1602 6.39705C41.1152 10.3903 45.6512 20.2582 42.7599 29.4565C42.5516 30.121 42.7218 30.8437 43.2063 31.3522C43.6908 31.8608 44.416 32.078 45.1088 31.922C45.8015 31.7661 46.3565 31.2607 46.5647 30.5961C50.021 19.6805 44.8009 7.93366 34.2812 2.9547C23.7616 -2.02427 11.0994 1.25884 4.48583 10.6802C-2.1277 20.1015 -0.70782 32.8337 7.82696 40.6402C16.3617 48.4468 29.4501 48.9849 38.6251 41.9065L46.1029 49.2174C46.8752 49.9692 48.1237 49.9692 48.896 49.2174C49.6675 48.455 49.6675 47.2275 48.896 46.4651L48.874 46.3576Z" fill="#200E32"/>
</svg>
