<svg width="38" height="48" viewBox="0 0 38 48" fill="none" xmlns="http://www.w3.org/2000/svg">
<path d="M19.0067 47.7805C21.6402 47.7805 23.7949 45.6112 23.7949 42.9598H14.2184C14.2184 44.2383 14.7229 45.4645 15.6209 46.3686C16.5188 47.2726 17.7367 47.7805 19.0067 47.7805ZM33.3713 33.3183V21.2665C33.3713 13.8666 29.445 7.67198 22.5978 6.03293V4.39388C22.5978 2.39327 20.9938 0.77832 19.0067 0.77832C17.0195 0.77832 15.4155 2.39327 15.4155 4.39388V6.03293C8.54437 7.67198 4.64196 13.8425 4.64196 21.2665V33.3183L1.55355 36.4277C0.045258 37.9462 1.09867 40.5494 3.22943 40.5494H34.7599C36.8907 40.5494 37.968 37.9462 36.4598 36.4277L33.3713 33.3183Z" fill="url(#paint0_linear_1383_111)"/>
<defs>
<linearGradient id="paint0_linear_1383_111" x1="17.9355" y1="2.91478" x2="17.9355" y2="47.7805" gradientUnits="userSpaceOnUse">
<stop stop-color="#80ABFF"/>
<stop offset="1" stop-color="#F431A7"/>
</linearGradient>
</defs>
</svg>
