<svg width="74" height="74" viewBox="0 0 74 74" fill="none" xmlns="http://www.w3.org/2000/svg">
<circle cx="37.3702" cy="37.0773" r="35.0471" stroke="#E13737" stroke-width="3.13854"/>
<path d="M19.7639 27.2128C21.5403 23.5729 24.2654 20.5131 27.6347 18.3754C31.0039 16.2376 34.8845 15.1061 38.8428 15.1074C44.5968 15.1074 49.4306 17.2846 53.1264 20.8306L47.0052 27.1315C44.7911 24.9543 41.9771 23.8448 38.8428 23.8448C33.281 23.8448 28.5732 27.7115 26.8971 32.903C26.4701 34.2212 26.2267 35.6272 26.2267 37.0772C26.2267 38.5272 26.4701 39.9333 26.8971 41.2515C28.5753 46.4451 33.281 50.3096 38.8428 50.3096C41.7145 50.3096 44.1591 49.5297 46.0721 48.2115C47.1812 47.4602 48.1306 46.4852 48.8631 45.3455C49.5956 44.2059 50.0959 42.9253 50.3337 41.581H38.8428V33.0831H58.9508C59.2028 34.5199 59.3394 36.0183 59.3394 37.5759C59.3394 44.2679 57.0122 49.901 52.9727 53.7237C49.4413 57.0807 44.6075 59.047 38.8428 59.047C36.0387 59.0482 33.2618 58.4807 30.671 57.377C28.0801 56.2733 25.726 54.6551 23.7431 52.6148C21.7603 50.5745 20.1877 48.1521 19.1151 45.4861C18.0426 42.82 17.4911 39.9627 17.4922 37.0772C17.4922 33.5313 18.3163 30.1787 19.7639 27.2128Z" fill="#E13737"/>
</svg>
