<svg width="137" height="137" viewBox="0 0 137 137" fill="none" xmlns="http://www.w3.org/2000/svg">
<circle cx="68.6346" cy="68.4627" r="68.0018" fill="url(#paint0_linear_743_2610)"/>
<path d="M104.852 101.603C102.8 83.8238 87.6209 70.0976 69.6815 70.0976C60.2246 70.0976 51.3313 73.8079 44.6421 80.5433C38.991 86.2349 35.4267 93.6663 34.5099 101.602C44.0389 109.639 56.3083 114.485 69.6815 114.485C83.0546 114.485 95.3231 109.64 104.852 101.603ZM69.6815 62.5446C80.0877 62.5446 88.555 54.0182 88.555 43.539C88.555 33.0589 80.0875 24.5332 69.6815 24.5332C59.2755 24.5332 50.808 33.0589 50.808 43.539C50.808 54.0182 59.2753 62.5446 69.6815 62.5446Z" fill="white"/>
<defs>
<linearGradient id="paint0_linear_743_2610" x1="7.95608" y1="40.2158" x2="125.128" y2="99.8481" gradientUnits="userSpaceOnUse">
<stop stop-color="#897FFE"/>
<stop offset="1" stop-color="#EA32B7"/>
</linearGradient>
</defs>
</svg>
