<svg width="90" height="79" viewBox="0 0 90 79" fill="none" xmlns="http://www.w3.org/2000/svg">
<path d="M50.7682 3.3001L89.1076 69.0997C89.6922 70.1031 90 71.2412 90 72.3998C90 73.5583 89.6923 74.6965 89.1077 75.6998C88.5231 76.7032 87.6823 77.5364 86.6697 78.1157C85.6572 78.695 84.5086 79 83.3394 79H6.6606C5.49141 79 4.34282 78.695 3.33028 78.1157C2.31773 77.5364 1.47692 76.7032 0.892331 75.6998C0.307747 74.6965 -7.42563e-06 73.5583 1.34379e-10 72.3998C7.4259e-06 71.2412 0.307776 70.1031 0.892374 69.0997L39.2318 3.3001C41.7939 -1.10003 48.2016 -1.10003 50.7682 3.3001ZM45 55.4505C43.8223 55.4505 42.6928 55.9141 41.8601 56.7393C41.0273 57.5644 40.5595 58.6836 40.5595 59.8506C40.5595 61.0176 41.0273 62.1368 41.8601 62.962C42.6928 63.7872 43.8223 64.2508 45 64.2508C46.1777 64.2508 47.3072 63.7872 48.1399 62.962C48.9727 62.1368 49.4405 61.0176 49.4405 59.8506C49.4405 58.6836 48.9727 57.5644 48.1399 56.7393C47.3072 55.9141 46.1777 55.4505 45 55.4505ZM45 24.6496C43.9124 24.6497 42.8626 25.0454 42.0498 25.7615C41.2371 26.4777 40.7178 27.4645 40.5906 28.5349L40.5595 29.0497V46.6502C40.5607 47.7717 40.9941 48.8504 41.7711 49.6659C42.548 50.4814 43.6099 50.9722 44.7398 51.0379C45.8696 51.1036 46.9821 50.7394 47.8501 50.0196C48.718 49.2997 49.2757 48.2787 49.4094 47.165L49.4405 46.6502V29.0497C49.4405 27.8827 48.9727 26.7635 48.1399 25.9383C47.3072 25.1131 46.1777 24.6496 45 24.6496Z" fill="#FFB423"/>
</svg>
