<svg width="32" height="34" viewBox="0 0 32 34" fill="none" xmlns="http://www.w3.org/2000/svg">
<path d="M10.2185 27.7756V26.7214L9.16611 26.6606C4.89839 26.4141 1.41366 22.6713 1.41366 18.0083V10.4001C1.41366 5.57203 5.14594 1.73495 9.61963 1.73495H22.05C26.5237 1.73495 30.2559 5.57203 30.2559 10.4001V18.0083C30.2559 22.8364 26.5237 26.6734 22.05 26.6734H21.1275C17.2046 26.6734 13.522 28.2797 10.7659 31.1722C10.7658 31.1722 10.7658 31.1722 10.7658 31.1723L10.2185 31.7465V27.7756ZM9.79423 32.1917C9.79434 32.1915 9.79446 32.1914 9.79457 32.1913L9.79423 32.1917Z" stroke="#333333" stroke-opacity="0.3" stroke-width="2.23358"/>
</svg>
