<svg width="137" height="137" viewBox="0 0 137 137" fill="none" xmlns="http://www.w3.org/2000/svg">
<circle cx="68.8377" cy="68.4627" r="68.0018" fill="url(#paint0_linear_743_2744)"/>
<path d="M80.2816 31.8467C66.2026 31.8467 55.1079 42.9414 55.1079 57.0204C55.1079 58.8375 55.2909 60.6637 55.6663 62.3984C55.9317 63.6342 55.6296 64.7053 55.0163 65.3186L34.2366 86.0984C33.5978 86.7364 33.0911 87.4941 32.7455 88.3282C32.3999 89.1623 32.2222 90.0563 32.2227 90.9592V98.2138C32.2227 100.035 32.946 101.781 34.2335 103.068C35.5211 104.356 37.2674 105.079 39.0882 105.079H48.2423C50.0632 105.079 51.8094 104.356 53.097 103.068C54.3845 101.781 55.1079 100.035 55.1079 98.2138V95.9253H59.6849C60.8988 95.9253 62.063 95.443 62.9214 94.5847C63.7797 93.7263 64.2619 92.5621 64.2619 91.3482V86.7712C64.2619 84.4369 65.4291 82.3681 67.2187 81.1277L61.6942 75.6032C61.0562 74.9656 60.5501 74.2086 60.2048 73.3753C59.8595 72.5421 59.6818 71.6489 59.6818 70.747C59.6818 69.845 59.8595 68.9519 60.2048 68.1186C60.5501 67.2854 61.0562 66.5283 61.6942 65.8907L70.8483 56.7366C71.949 55.6308 73.3934 54.9328 74.9438 54.7577C76.4942 54.5826 78.058 54.9408 79.3775 55.7733C80.6971 56.6057 81.6938 57.8628 82.2034 59.3375C82.713 60.8121 82.7051 62.4164 82.1811 63.886H87.1472C92.6858 63.8874 98.0361 65.8974 102.206 69.5432C104.284 65.8724 105.455 61.5975 105.455 57.0204C105.455 42.9414 94.3606 31.8467 80.2816 31.8467ZM87.1472 45.5778C88.3611 45.5778 89.5252 46.06 90.3836 46.9184C91.242 47.7768 91.7242 48.9409 91.7242 50.1548C91.7242 51.3688 91.242 52.5329 90.3836 53.3913C89.5252 54.2497 88.3611 54.7319 87.1472 54.7319C85.9333 54.7319 84.7691 54.2497 83.9107 53.3913C83.0523 52.5329 82.5701 51.3688 82.5701 50.1548C82.5701 48.9409 83.0523 47.7768 83.9107 46.9184C84.7691 46.06 85.9333 45.5778 87.1472 45.5778ZM77.3248 63.2177C77.7545 62.788 77.996 62.2052 77.996 61.5975C77.996 60.9897 77.7545 60.4069 77.3248 59.9772C76.8951 59.5475 76.3123 59.306 75.7046 59.306C75.0968 59.306 74.514 59.5475 74.0843 59.9772L64.9302 69.1313C64.7171 69.3438 64.548 69.5964 64.4326 69.8744C64.3172 70.1525 64.2579 70.4505 64.2579 70.7515C64.2579 71.0526 64.3172 71.3506 64.4326 71.6286C64.548 71.9067 64.7171 72.1592 64.9302 72.3718L74.0843 81.5259C74.514 81.9556 75.0968 82.197 75.7046 82.197C76.3123 82.197 76.8951 81.9556 77.3248 81.5259C77.7545 81.0962 77.996 80.5133 77.996 79.9056C77.996 79.2979 77.7545 78.7151 77.3248 78.2853L72.075 73.0401H87.1472C89.8629 73.0401 92.5177 73.8454 94.7758 75.3542C97.0338 76.863 98.7938 79.0075 99.8331 81.5165C100.872 84.0255 101.144 86.7864 100.614 89.45C100.085 92.1136 98.7769 94.5602 96.8565 96.4806C94.9362 98.4009 92.4895 99.7086 89.826 100.238C87.1624 100.768 84.4015 100.496 81.8925 99.4571C79.3834 98.4178 77.2389 96.6579 75.7301 94.3998C74.2213 92.1417 73.416 89.4869 73.416 86.7712C73.416 86.1642 73.1749 85.5821 72.7457 85.153C72.3166 84.7238 71.7345 84.4827 71.1275 84.4827C70.5206 84.4827 69.9385 84.7238 69.5093 85.153C69.0801 85.5821 68.839 86.1642 68.839 86.7712C68.839 90.3922 69.9127 93.9319 71.9245 96.9426C73.9362 99.9534 76.7955 102.3 80.1409 103.686C83.4863 105.071 87.1675 105.434 90.7189 104.728C94.2703 104.021 97.5325 102.277 100.093 99.717C102.653 97.1566 104.397 93.8944 105.104 90.3429C105.81 86.7915 105.447 83.1103 104.062 79.7649C102.676 76.4196 100.329 73.5602 97.3186 71.5485C94.3079 69.5368 90.7682 68.463 87.1472 68.463H72.075L77.3248 63.2177Z" fill="white"/>
<defs>
<linearGradient id="paint0_linear_743_2744" x1="8.15921" y1="40.2158" x2="125.331" y2="99.8481" gradientUnits="userSpaceOnUse">
<stop stop-color="#897FFE"/>
<stop offset="1" stop-color="#EA32B7"/>
</linearGradient>
</defs>
</svg>
