<svg width="137" height="137" viewBox="0 0 137 137" fill="none" xmlns="http://www.w3.org/2000/svg">
<circle cx="68.7479" cy="68.4627" r="68.0018" fill="url(#paint0_linear_743_2718)"/>
<path d="M98.0422 40.2158H39.4561C35.4283 40.2158 32.1694 43.5113 32.1694 47.5391L32.1328 91.4787C32.1328 95.5065 35.4283 98.802 39.4561 98.802H98.0422C102.07 98.802 105.365 95.5065 105.365 91.4787V47.5391C105.365 43.5113 102.07 40.2158 98.0422 40.2158ZM96.5776 55.7778L70.6898 71.9622C69.5181 72.6945 67.9802 72.6945 66.8085 71.9622L40.9207 55.7778C40.5536 55.5717 40.232 55.2932 39.9756 54.9592C39.7192 54.6253 39.5332 54.2427 39.4289 53.8348C39.3246 53.4269 39.3041 53.002 39.3688 52.5859C39.4334 52.1699 39.5818 51.7713 39.805 51.4142C40.0281 51.0571 40.3214 50.7491 40.6671 50.5087C41.0127 50.2682 41.4036 50.1004 41.816 50.0154C42.2284 49.9304 42.6537 49.93 43.0663 50.0142C43.4788 50.0983 43.87 50.2653 44.2162 50.505L68.7491 65.8473L93.2821 50.505C93.6283 50.2653 94.0195 50.0983 94.432 50.0142C94.8446 49.93 95.2699 49.9304 95.6823 50.0154C96.0947 50.1004 96.4856 50.2682 96.8312 50.5087C97.1769 50.7491 97.4702 51.0571 97.6933 51.4142C97.9165 51.7713 98.0649 52.1699 98.1295 52.5859C98.1942 53.002 98.1737 53.4269 98.0694 53.8348C97.9651 54.2427 97.7791 54.6253 97.5227 54.9592C97.2663 55.2932 96.9447 55.5717 96.5776 55.7778Z" fill="white"/>
<defs>
<linearGradient id="paint0_linear_743_2718" x1="8.06936" y1="40.2158" x2="125.242" y2="99.8481" gradientUnits="userSpaceOnUse">
<stop stop-color="#897FFE"/>
<stop offset="1" stop-color="#EA32B7"/>
</linearGradient>
</defs>
</svg>
