<svg width="32" height="34" viewBox="0 0 32 34" fill="none" xmlns="http://www.w3.org/2000/svg">
<path d="M31.0407 0.943453C30.902 0.797635 30.7272 0.695284 30.5362 0.647888C30.3451 0.600491 30.1452 0.609925 29.9589 0.67513L0.801068 10.8758C0.606471 10.9438 0.434925 11.0697 0.307361 11.2383C0.179797 11.4068 0.101731 11.6107 0.0826894 11.825C0.0636473 12.0393 0.104452 12.2548 0.200125 12.4452C0.295797 12.6356 0.442201 12.7926 0.621473 12.8971L12.854 20.0288L19.6491 32.8673C19.7406 33.04 19.8745 33.1839 20.0368 33.2841C20.1992 33.3843 20.3841 33.4372 20.5724 33.4372C20.6041 33.4372 20.6379 33.4372 20.6707 33.4316C20.8747 33.4117 21.0689 33.33 21.2294 33.1963C21.39 33.0626 21.5101 32.8828 21.575 32.6788L31.2943 2.07662C31.3562 1.88164 31.3653 1.67241 31.3206 1.47231C31.2758 1.27221 31.1789 1.08911 31.0407 0.943453ZM3.7496 12.1864L26.3829 4.26423L13.5798 17.7015C13.5426 17.7499 13.5097 17.8019 13.4816 17.8567L3.7496 12.1864ZM20.3358 29.5942L14.9299 19.3801C14.9821 19.3506 15.0317 19.3161 15.0778 19.277L27.8767 5.83204L20.3358 29.5942Z" fill="black" fill-opacity="0.3"/>
</svg>
