<svg width="137" height="137" viewBox="0 0 137 137" fill="none" xmlns="http://www.w3.org/2000/svg">
<circle cx="68.8768" cy="68.4627" r="68.0018" fill="url(#paint0_linear_743_2695)"/>
<path d="M90.453 56.3271V47.5391C90.453 35.236 80.9589 25.5693 68.8755 25.5693C56.7921 25.5693 47.2981 35.236 47.2981 47.5391V56.3271C39.9617 56.3271 34.3516 62.0392 34.3516 69.5089V100.267C34.3516 107.736 39.9617 113.449 47.2981 113.449H90.453C97.7894 113.449 103.4 107.736 103.4 100.267V69.5089C103.4 62.0392 97.7894 56.3271 90.453 56.3271ZM55.929 47.5391C55.929 40.0694 61.5392 34.3573 68.8755 34.3573C76.2119 34.3573 81.822 40.0694 81.822 47.5391V56.3271H55.929V47.5391Z" fill="white"/>
<path d="M68.8244 96.6472C70.4181 96.6472 71.1573 95.5401 71.1573 94.0639V93.2795C71.2036 90.2346 72.3123 88.9661 76.0082 86.4299C79.9584 83.7531 82.4755 80.6629 82.4755 76.2107C82.4755 69.2913 76.8401 65.3242 69.8405 65.3242C64.62 65.3242 60.0233 67.7924 58.06 72.2437C57.5751 73.3282 57.3672 74.3891 57.3672 75.265C57.3672 76.5798 58.129 77.5029 59.5384 77.5029C60.7161 77.5029 61.5016 76.811 61.8486 75.6803C63.049 71.2979 65.9367 69.6377 69.6789 69.6377C74.183 69.6377 77.6945 72.1748 77.6945 76.1881C77.6945 79.4859 75.6386 81.3312 72.6819 83.4077C69.055 85.9221 66.3989 88.6206 66.3989 92.6802V94.1328C66.3989 95.609 67.2081 96.6472 68.8244 96.6472ZM68.8234 109.264C70.6477 109.264 72.1034 107.788 72.1034 105.989C72.1058 105.558 72.0225 105.131 71.8585 104.732C71.6945 104.334 71.453 103.972 71.148 103.667C70.8429 103.363 70.4804 103.122 70.0814 102.958C69.6824 102.794 69.2548 102.711 68.8234 102.713C67.0218 102.713 65.5198 104.167 65.5198 105.989C65.5198 107.788 67.0218 109.264 68.8234 109.264Z" fill="url(#paint1_linear_743_2695)"/>
<defs>
<linearGradient id="paint0_linear_743_2695" x1="8.19827" y1="40.2158" x2="125.371" y2="99.8481" gradientUnits="userSpaceOnUse">
<stop stop-color="#897FFE"/>
<stop offset="1" stop-color="#EA32B7"/>
</linearGradient>
<linearGradient id="paint1_linear_743_2695" x1="69.9214" y1="65.3242" x2="69.9214" y2="109.264" gradientUnits="userSpaceOnUse">
<stop stop-color="#B45DDE"/>
<stop offset="1" stop-color="#D444C7"/>
</linearGradient>
</defs>
</svg>
