<svg width="52" height="52" viewBox="0 0 52 52" fill="none" xmlns="http://www.w3.org/2000/svg">
<circle cx="26.2955" cy="25.7379" r="25.6861" fill="#F431A7"/>
<path d="M39.6437 42.6572C35.9691 45.5624 31.3334 47.2976 26.298 47.2976C21.2627 47.2976 16.6266 45.5621 12.9521 42.6568C13.4034 39.8755 14.7228 37.2864 16.7374 35.2715C16.7374 35.2715 16.7374 35.2714 16.7375 35.2714M39.6437 42.6572L40.8363 43.1263C39.988 35.8284 33.7135 30.194 26.298 30.194C22.3889 30.194 18.7128 31.717 15.9477 34.4818L16.7375 35.2714M39.6437 42.6572C38.5974 36.2129 32.9408 31.3108 26.298 31.3108C22.6853 31.3108 19.2932 32.716 16.7375 35.2714M39.6437 42.6572L16.7375 35.2714M26.298 25.9768C29.9828 25.9768 32.9828 22.9768 32.9828 19.2921C32.9828 15.607 29.9827 12.6074 26.298 12.6074C22.6133 12.6074 19.6133 15.607 19.6133 19.2921C19.6133 22.9768 22.6133 25.9768 26.298 25.9768Z" stroke="white" stroke-width="2.23358"/>
</svg>
