<svg width="54" height="53" viewBox="0 0 54 53" fill="none" xmlns="http://www.w3.org/2000/svg">
<path fill-rule="evenodd" clip-rule="evenodd" d="M21.7663 1.65626C23.2937 0.611542 25.101 0.0525586 26.9514 0.0525586C28.8019 0.0525586 30.6092 0.611542 32.1366 1.65626L49.1929 13.328C50.4252 14.171 51.4335 15.3017 52.1304 16.6222C52.8272 17.9427 53.1916 19.4132 53.1919 20.9063V42.9955C53.1919 45.4313 52.2243 47.7674 50.5019 49.4897C48.7796 51.2121 46.4435 52.1797 44.0078 52.1797H9.89511C7.45932 52.1797 5.12329 51.2121 3.40092 49.4897C1.67855 47.7674 0.710938 45.4313 0.710938 42.9955V20.9063C0.711298 19.4132 1.07568 17.9427 1.77251 16.6222C2.46934 15.3017 3.47762 14.171 4.70999 13.328L21.7663 1.65626Z" fill="#808BFF"/>
<path d="M18.5781 38.0234H36.4467" stroke="white" stroke-width="3.35036" stroke-linecap="round"/>
</svg>
