<svg width="74" height="74" viewBox="0 0 74 74" fill="none" xmlns="http://www.w3.org/2000/svg">
<circle cx="36.9015" cy="37.0773" r="35.0471" stroke="#39A0FF" stroke-width="3.13854"/>
<path d="M57.7967 26.0437C57.9181 25.8763 57.7381 25.6566 57.5456 25.7319C56.1662 26.267 54.7252 26.6276 53.2563 26.8053C54.8881 25.8306 56.153 24.345 56.8552 22.5787C56.9263 22.3988 56.7296 22.2377 56.5622 22.3318C55.0411 23.1709 53.4028 23.7756 51.6975 24.125C51.6624 24.132 51.6261 24.13 51.592 24.119C51.5579 24.108 51.5273 24.0884 51.5029 24.0622C50.2196 22.7082 48.5299 21.8094 46.6899 21.502C44.8498 21.1946 42.9598 21.4955 41.3061 22.3589C39.6524 23.2223 38.3252 24.6012 37.5256 26.2867C36.7261 27.9722 36.4977 29.8724 36.8752 31.6993C36.8819 31.7311 36.8813 31.7641 36.8733 31.7956C36.8654 31.8271 36.8504 31.8564 36.8294 31.8812C36.8084 31.9061 36.782 31.9258 36.7522 31.9389C36.7224 31.9519 36.6901 31.958 36.6576 31.9567C33.3463 31.751 30.112 30.871 27.153 29.3707C24.194 27.8703 21.5727 25.7812 19.45 23.2315C19.4288 23.205 19.4014 23.1842 19.3701 23.1709C19.3389 23.1576 19.3048 23.1522 19.271 23.1554C19.2372 23.1585 19.2047 23.1699 19.1764 23.1887C19.1481 23.2075 19.1249 23.233 19.109 23.2629C18.4483 24.5162 18.1036 25.9117 18.1046 27.3284C18.1019 28.7394 18.4482 30.1293 19.1126 31.3741C19.777 32.6189 20.7389 33.6802 21.9127 34.4633C20.6692 34.4295 19.4483 34.1224 18.3369 33.5636C18.1946 33.4904 18.023 33.5929 18.0293 33.7519C18.1128 35.6374 18.7968 37.4467 19.9815 38.9159C21.2402 40.4403 22.9867 41.4832 24.9257 41.8682C24.1793 42.0954 23.4043 42.2151 22.6241 42.2239C22.1999 42.2188 21.7765 42.1873 21.3561 42.1298C21.1992 42.1088 21.0716 42.2553 21.126 42.4018C21.7253 44.0241 22.7998 45.428 24.2093 46.4302C25.6187 47.4324 27.2976 47.9864 29.0267 48.0198C25.688 50.6457 21.4956 51.9433 17.2572 51.6626C17.0354 51.6479 16.9329 51.9429 17.1233 52.0559C20.8712 54.28 25.1499 55.451 29.508 55.4455C32.7294 55.479 35.9252 54.8702 38.9087 53.6548C41.8923 52.4394 44.6037 50.6418 46.8847 48.3668C49.1658 46.0918 50.9706 43.3851 52.1939 40.4048C53.4172 37.4245 54.0345 34.2303 54.0096 31.0089V30.0045C54.0096 29.972 54.0171 29.94 54.0316 29.9109C54.0462 29.8819 54.0673 29.8566 54.0933 29.8371C55.5117 28.7664 56.7603 27.4875 57.7967 26.0437Z" fill="#39A0FF"/>
</svg>
